# xmcd
#
# Track frame offsets:
#	150
#	2185
#	5815
#
# Disc length: 124 seconds
#
# Revision: 0
# Processed by: cddbd v1.5.2PL0 Copyright (c) Steve Scherf et al.
# Submitted via: EZCDAudioConverter 6.2.0.1
#
DISCID=1b007a03
DTITLE=Νίκος Μάντζαρος - Εθνικός Ύμνος
DYEAR=2011
DGENRE=Επετειακό
TTITLE0=Ορχηστρικό - Σημαία
TTITLE1=Ορχηστρικό - Εθνικός Ύμνος
TTITLE2=Χορωδία Τυπάλδου - Εθνικός Ύμνος
EXTD=
EXTT0=
EXTT1=
EXTT2=
PLAYORDER=
